<svg width="259" height="54" viewBox="0 0 259 54" fill="none" xmlns="http://www.w3.org/2000/svg">
<path d="M251.827 31.601V22.1827C251.827 20.2633 252.228 18.9688 253.032 18.2993C253.835 17.6297 255.174 17.3173 256.96 17.3173H258.701V13.0768H257.228C255.888 13.0768 254.728 13.2553 253.791 13.6571C252.809 14.0588 252.094 14.6391 251.514 15.3533L250.621 13.0768H247.274V31.601H251.827ZM235.668 16.5138C236.963 16.5138 237.945 16.8709 238.614 17.6297C239.284 18.3886 239.641 19.3706 239.73 20.5758H231.338C231.428 19.3259 231.785 18.3439 232.454 17.6297C233.124 16.8709 234.106 16.5138 235.4 16.5138H235.668ZM239.462 26.0214C239.15 26.691 238.703 27.2266 238.123 27.5837C237.543 27.9854 236.829 28.164 235.891 28.164H235.579C234.195 28.164 233.168 27.7623 232.454 27.0034C231.74 26.2446 231.338 25.218 231.249 24.0128H244.238V22.138C244.238 19.2367 243.479 16.9156 241.962 15.2194C240.444 13.4785 238.346 12.6304 235.713 12.6304H235.4C232.767 12.6304 230.669 13.4785 229.106 15.2194C227.544 16.9156 226.785 19.1474 226.785 21.8702V23.0754C226.785 24.4145 227.009 25.6197 227.41 26.7356C227.812 27.8515 228.392 28.7889 229.151 29.5924C229.91 30.3958 230.847 31.0207 231.919 31.4671C233.034 31.9135 234.24 32.1367 235.623 32.1367H235.936C237.677 32.1367 239.15 31.7796 240.4 31.11C241.649 30.4405 242.676 29.4138 243.435 28.0301L239.462 26.0214ZM211.654 31.601V20.7989C211.698 19.5491 212.011 18.5225 212.636 17.719C213.26 16.9156 214.198 16.5138 215.358 16.5138H215.805C216.831 16.5138 217.635 16.8263 218.215 17.4958C218.84 18.1207 219.108 19.192 219.108 20.665V31.6457H223.661V19.8616C223.661 17.6744 223.081 15.9336 221.875 14.5944C220.67 13.2553 219.108 12.5858 217.099 12.5858H216.564C215.582 12.5858 214.644 12.7643 213.796 13.1661C212.948 13.5678 212.189 14.1034 211.564 14.773V5.66711H207.011V31.601H211.654V31.601ZM199.736 27.5391C199.423 27.2713 199.289 26.7803 199.289 26.0661V16.737H203.753V13.0768H199.289V9.01487H195.406L194.915 13.0768H191.879V16.737H194.781V26.1107C194.781 27.8069 195.183 29.146 195.986 30.128C196.79 31.11 198.173 31.601 200.093 31.601H203.708V27.9408H201.075C200.45 27.9408 200.003 27.8069 199.736 27.5391ZM180.765 28.2533C179.828 28.2533 179.113 28.0747 178.622 27.7176C178.131 27.3605 177.864 26.8249 177.864 26.1553V26.0214C177.864 25.3519 178.131 24.7716 178.712 24.3252C179.247 23.8789 180.229 23.6557 181.658 23.6557H185.05V24.3252C185.05 25.6643 184.693 26.6464 183.979 27.2713C183.265 27.8962 182.283 28.2533 181.122 28.2533H180.765ZM179.872 32.092C181.077 32.092 182.104 31.8688 183.041 31.4225C183.979 30.9761 184.738 30.3065 185.363 29.3692L186.121 31.6457H189.558V19.5045C189.558 17.228 188.889 15.4872 187.55 14.3266C186.211 13.1661 184.336 12.5858 181.97 12.5858H181.524C179.381 12.5858 177.685 13.0322 176.435 13.8803C175.185 14.773 174.382 15.8443 174.025 17.0941L178.042 18.7457C178.265 18.1207 178.667 17.6297 179.203 17.1834C179.738 16.7816 180.497 16.5585 181.434 16.5585H181.881C182.952 16.5585 183.756 16.8263 184.247 17.3173C184.782 17.8529 185.005 18.5671 185.005 19.5045V20.4418H181.702C178.979 20.4418 176.926 20.9775 175.498 22.0488C174.069 23.12 173.355 24.5484 173.355 26.2893V26.5571C173.355 28.2979 173.891 29.637 174.962 30.6637C176.033 31.6457 177.551 32.1813 179.515 32.1813H179.872V32.092ZM162.732 16.5138C164.026 16.5138 165.008 16.8709 165.678 17.6297C166.347 18.3886 166.704 19.3706 166.794 20.5758H158.402C158.491 19.3259 158.848 18.3439 159.518 17.6297C160.187 16.8709 161.169 16.5138 162.464 16.5138H162.732ZM166.526 26.0214C166.213 26.691 165.767 27.2266 165.187 27.5837C164.606 27.9854 163.892 28.164 162.955 28.164H162.642C161.259 28.164 160.232 27.7623 159.518 27.0034C158.804 26.2446 158.402 25.218 158.313 24.0128H171.302V22.138C171.302 19.2367 170.543 16.9156 169.025 15.2194C167.508 13.4785 165.41 12.6304 162.776 12.6304H162.419C159.786 12.6304 157.688 13.4785 156.125 15.2194C154.563 16.9156 153.804 19.1474 153.804 21.8702V23.0754C153.804 24.4145 154.028 25.6197 154.429 26.7356C154.831 27.8515 155.411 28.7889 156.17 29.5924C156.929 30.3958 157.866 31.0207 158.938 31.4671C160.054 31.9135 161.259 32.1367 162.642 32.1367H162.955C164.696 32.1367 166.169 31.7796 167.419 31.11C168.668 30.4405 169.695 29.4138 170.454 28.0301L166.526 26.0214ZM132.066 31.601L137.512 12.7197L142.69 31.601H146.841L154.295 5.97956V5.66711H149.832L144.922 24.0128L140.101 5.66711H135.191L130.147 24.3252L125.371 5.66711H120.684V5.97956L127.826 31.601H132.066V31.601ZM102.829 13.0768V24.8162C102.829 27.0034 103.41 28.7443 104.615 30.0834C105.82 31.4225 107.382 32.092 109.391 32.092H109.882C110.998 32.092 112.024 31.8688 112.917 31.4225C113.855 30.9761 114.613 30.3066 115.238 29.4585L115.997 31.601H119.39V13.0768H114.881V23.8789C114.837 25.1287 114.524 26.1553 113.855 26.9588C113.185 27.7623 112.292 28.164 111.087 28.164H110.641C109.659 28.164 108.855 27.8515 108.23 27.182C107.605 26.5571 107.293 25.4858 107.293 24.0128V13.0322H102.829V13.0768ZM97.83 13.8356C96.5802 13.0322 94.9732 12.6304 92.9646 12.6304H92.6521C90.0186 12.6304 87.9207 13.3893 86.3584 14.9515C84.7961 16.5138 84.0373 18.5671 84.0373 21.156V23.5218C84.0373 26.1107 84.7961 28.2086 86.3584 29.7263C87.9207 31.2886 89.9739 32.0474 92.6521 32.0474H92.9646C94.7947 32.0474 96.3123 31.6903 97.5175 30.9761C98.7227 30.2619 99.6601 29.2353 100.374 27.8069L96.6248 25.709C96.3123 26.4232 95.866 27.0034 95.2857 27.4498C94.7054 27.8962 93.9466 28.1194 92.9646 28.1194H92.6521C91.2238 28.1194 90.1971 27.673 89.5276 26.8249C88.858 25.9768 88.5456 24.8609 88.5456 23.4771V21.2007C88.5456 19.8169 88.858 18.701 89.5276 17.8529C90.1971 17.0048 91.2238 16.5585 92.6521 16.5585H92.9646C93.9466 16.5585 94.7501 16.7816 95.3303 17.228C95.9106 17.6744 96.357 18.2993 96.6694 19.0581L100.597 17.1834C100.017 15.7996 99.0798 14.6391 97.83 13.8356ZM79.5736 13.8356C78.3238 13.0322 76.7168 12.6304 74.7082 12.6304H74.3957C71.7622 12.6304 69.6643 13.3893 68.102 14.9515C66.5397 16.5138 65.7809 18.5671 65.7809 21.156V23.5218C65.7809 26.1107 66.5397 28.2086 68.102 29.7263C69.6643 31.2886 71.7175 32.0474 74.3957 32.0474H74.7082C76.5383 32.0474 78.056 31.6903 79.2611 30.9761C80.4663 30.2619 81.4037 29.2353 82.1179 27.8069L78.3684 25.709C78.056 26.4232 77.6096 27.0034 77.0293 27.4498C76.449 27.8962 75.6902 28.1194 74.7082 28.1194H74.3957C72.9674 28.1194 71.9407 27.673 71.2712 26.8249C70.6016 25.9768 70.2892 24.8609 70.2892 23.4771V21.2007C70.2892 19.8169 70.6016 18.701 71.2712 17.8529C71.9407 17.0048 72.9674 16.5585 74.3957 16.5585H74.7082C75.6902 16.5585 76.4937 16.7816 77.0739 17.228C77.6542 17.6744 78.1006 18.2993 78.413 19.0581L82.3411 17.1834C81.7162 15.7996 80.8234 14.6391 79.5736 13.8356ZM53.595 12.4519L56.675 22.0041H50.4705L53.595 12.4519ZM51.4078 5.66711L42.793 31.2886V31.601H47.3013L49.0867 26.2H58.0587L59.7995 31.601H64.531V31.2886L55.9161 5.66711H51.4078V5.66711Z" fill="white"/>
<path d="M19.1351 31.6457C12.0825 31.6457 6.32442 25.8876 6.32442 18.835C6.32442 11.7824 12.0825 6.06889 19.1351 6.06889C26.1877 6.06889 31.9012 11.827 31.9012 18.835C31.9012 25.9322 26.1877 31.6457 19.1351 31.6457ZM37.5701 18.7903L33.3742 14.9962L35.0704 9.59518L29.5355 8.38999L28.3303 2.85504L22.9293 4.59587L19.0905 0.400024L15.2964 4.59587L9.89535 2.89968L8.69016 8.43463L3.15521 9.63982L4.89605 15.0409L0.700195 18.8796L4.89605 22.6737L3.19985 28.0748L8.7348 29.28L9.93999 34.8149L15.341 33.0741L19.1798 37.2699L22.9739 33.0741L28.3749 34.7703L29.5801 29.2353L35.1151 27.9855L33.3742 22.5845L37.5701 18.7903Z" fill="#F05823"/>
<path d="M11.0558 10.8004C15.5194 6.33672 22.7506 6.33672 27.2142 10.8004C31.6779 15.2641 31.6779 22.4952 27.2142 26.9589C22.7506 31.4225 15.5194 31.4225 11.0558 26.9589C6.59209 22.4952 6.59209 15.2194 11.0558 10.8004Z" fill="#F05823"/>
</svg>
