<svg class="svg-icon" style="width: 1em; height: 1em;vertical-align: middle;fill: currentColor;overflow: hidden;" viewBox="0 0 1024 1024" version="1.1" xmlns="http://www.w3.org/2000/svg">
<path fill="blue" d="M643.74044 431.442266 643.74044 34.786271C601.048105 22.816658 556.12701 16.269545 509.627976 16.269545c-69.648266 0-135.925762 14.434757-196.011232 40.385802L643.74044 431.442266z"  />
<path fill="blue" d="M695.287443 485.927181l249.036913-213.364459c-21.711488-38.650275-48.88436-75.092255-81.737606-107.944478C813.347303 115.359354 756.259096 78.720899 695.405123 54.564733L695.287443 485.927181z"  />
<path fill="blue" d="M634.650411 623.74606l348.521718 19.305695c11.969613-42.672892 18.516726-87.632873 18.516726-134.131907 0-69.64929-14.434757-135.925762-40.405245-196.011232L634.650411 623.74606z"  />
<path fill="blue" d="M504.561587 659.024541l240.83409 276.28858c38.650275-21.691021 75.071789-48.826032 107.944478-81.71714 49.239448-49.239448 85.898369-106.326631 110.014626-167.181627L504.561587 659.024541z"  />
<path fill="blue" d="M377.923352 581.191872l0 396.655995c42.672892 11.989055 87.632873 18.536168 134.151349 18.536168 69.610404 0 135.886877-14.434757 195.971323-40.424688L377.923352 581.191872z"  />
<path fill="blue" d="M344.655667 498.055406 81.480756 742.872205c21.73093 38.630832 48.864918 75.03188 81.737606 107.924012 49.25889 49.220005 106.327654 85.877903 167.181627 110.034069L344.655667 498.055406z"  />
<path fill="blue" d="M436.549587 373.723703 39.893592 373.723703c-11.969613 42.672892-18.516726 87.61343-18.516726 134.11144 0 69.629847 14.434757 135.925762 40.405245 196.011232L436.549587 373.723703z"  />
<path fill="blue" d="M505.645269 338.169953 272.108375 75.921133c-38.629809 21.711488-75.071789 48.864918-107.944478 81.736583C114.944915 206.916607 78.305437 263.98537 54.149271 324.839343L505.645269 338.169953z"  />
</svg>